# xmcd CD database file
#
# Track frame offsets:
#	150
#	17265
#	28841
#	41076
#	53235
#	62352
#	85216
#	98644
#	109386
#	122002
#	132468
#	143074
#	151165
#	163371
#
# Disc length: 2342 seconds
#
# Revision: 0
# Processed by: cddbd v1.5.2PL0 Copyright (c) Steve Scherf et al.
# Submitted via: CDex 1.70beta2
#
DISCID=b709240e
DTITLE=Hollow Rock String Band, Alan Jabbour, Tommy Thompson and Sandy Bradley - Hollow Rock Legacy:  Sandy's Fancy [CD2]
DYEAR=1981
DGENRE=Oldtime
TTITLE0=Johnny Lover's Gone - Taylor Kimble et al.
TTITLE1=Shoes and Stockings - Henry Reed
TTITLE2=Sally Ann Johnson - Henry Reed
TTITLE3=Ducks in the Pond - Henry Reed
TTITLE4=Schottische - Henry Reed
TTITLE5=Liza Jane/Liza Jane - Romie Aiken - Glen Smith
TTITLE6=Shortening Bread - Ebenezer - Henry Reed - Frank George and Henry Reed
TTITLE7=Paddy on the Turnpike - Henry Reed
TTITLE8=Fire on the Mountain - Greenfield Cotillion - John Lewis - Gray Craig
TTITLE9=Shooting Creek - Oscar Wright
TTITLE10=Little Brown Hand - Armin Barnett
TTITLE11=Indian Nation - Burl Hammons
TTITLE12=Peekaboo Waltz - Henry Reed et al.
TTITLE13=Ragged Bill - Henry Reed
EXTD=YEAR: 1981
EXTT0=
EXTT1=
EXTT2=
EXTT3=
EXTT4=
EXTT5=
EXTT6=
EXTT7=
EXTT8=
EXTT9=
EXTT10=
EXTT11=
EXTT12=
EXTT13=
PLAYORDER=
